<?xml version="1.0" encoding="UTF-8"?>
<!DOCTYPE svg PUBLIC "-//W3C//DTD SVG 1.1//EN" "http://www.w3.org/Graphics/SVG/1.1/DTD/svg11.dtd">
<!-- Creator: CorelDRAW X7 -->
<svg xmlns="http://www.w3.org/2000/svg" xml:space="preserve" width="356px" height="240px" version="1.1" style="shape-rendering:geometricPrecision; text-rendering:geometricPrecision; image-rendering:optimizeQuality; fill-rule:evenodd; clip-rule:evenodd"
viewBox="0 0 356 240"
 xmlns:xlink="http://www.w3.org/1999/xlink">
 <defs>
  <style type="text/css">
   <![CDATA[
    .fil1 {fill:#FEFEFE}
    .fil2 {fill:#F4A033}
    .fil4 {fill:#242222}
    .fil0 {fill:#4562AB}
    .fil3 {fill:#242222;fill-rule:nonzero}
   ]]>
  </style>
 </defs>
 <g id="Layer_x0020_1">
  <metadata id="CorelCorpID_0Corel-Layer"/>
  <path class="fil0" d="M178 0c17,8 35,12 50,23 16,11 27,29 41,43 -2,18 0,37 -6,55 -6,19 -19,35 -29,52 -18,4 -35,12 -53,12 -20,0 -40,-8 -59,-12 -9,-15 -22,-30 -28,-47 -6,-19 -5,-40 -7,-60 12,-13 22,-30 37,-40 16,-12 36,-17 54,-26z"/>
  <path class="fil1" d="M178 93c1,-1 2,-4 3,-5 1,-1 1,-2 3,-2 -2,5 -2,13 1,19 2,3 6,5 10,6 1,2 1,3 1,5 4,-1 6,-5 5,-9 0,-3 -1,-7 -1,-9 1,-2 2,-4 6,-3 -2,3 -2,6 -1,9 2,11 9,15 3,26 -3,5 -10,7 -14,8 -6,0 -8,5 -10,6 0,-1 0,-3 0,-5 -1,-4 -3,-7 -6,-9 -3,2 -5,5 -6,9 0,2 0,4 0,5 -2,-1 -4,-6 -10,-6 -4,-1 -11,-3 -14,-8 -6,-11 1,-15 3,-26 1,-3 1,-6 -1,-9 4,-1 5,1 6,3 0,2 -1,6 -1,9 -1,4 1,8 5,9 0,-2 0,-3 1,-5 4,-1 8,-3 10,-6 3,-6 3,-14 1,-19 2,0 2,1 3,2 1,1 2,4 3,5zm0 -22c-1,2 -6,6 -7,7 -1,1 -1,3 0,6 4,0 6,3 7,6 1,-3 3,-6 7,-6 1,-3 1,-5 0,-6 -1,-1 -6,-5 -7,-7zm6 22c0,5 2,13 10,17 -1,-5 -5,-14 -10,-17zm-12 0c-5,3 -9,12 -10,17 8,-4 10,-12 10,-17zm6 65c-9,-4 -16,-5 -23,-2 -5,2 -11,5 -17,7l-1 3c7,-2 11,-5 17,-7 7,-3 15,-2 24,2 9,-4 17,-5 24,-2 6,2 10,5 17,7l-1 -3c-6,-2 -12,-5 -17,-7 -7,-3 -14,-2 -23,2zm0 -119c0,1 2,2 4,3 2,1 3,3 3,7l-2 19 1 1 3 -27c1,2 3,5 4,6 2,2 3,5 2,7l-4 19 1 2 6 -24c1,-3 2,-4 5,-4 2,0 5,2 8,4 -4,1 -5,1 -6,4l-11 43c-2,-3 -4,-6 -8,-7 1,-4 2,-8 3,-11 1,-5 -9,-9 -9,-14 0,5 -10,9 -9,14 1,3 2,7 3,11 -4,1 -6,4 -8,7l-11 -43c-1,-3 -2,-3 -6,-4 3,-2 6,-4 8,-4 3,0 4,1 5,4l6 24 1 -2 -4 -19c-1,-2 0,-5 2,-7 1,-1 3,-4 4,-6l3 27 1 -1 -2 -19c0,-4 1,-6 3,-7 2,-1 4,-2 4,-3zm38 103c-3,-1 -7,-3 -18,-3 5,-1 9,-3 11,-7 3,-4 3,-10 3,-12 0,-4 -2,-7 -4,-11 -2,-4 -3,-9 -1,-14 1,-1 3,-2 6,-1 4,1 10,5 13,6 3,1 11,1 14,-1 2,-2 3,-7 2,-10 -1,-3 -3,-5 -3,-10 1,3 4,7 6,10 2,2 2,9 1,13 -1,2 -3,4 -5,5 -4,3 -7,2 -10,3l-1 2c1,0 5,0 8,-2 3,-1 6,-2 6,-3 0,4 -2,8 -5,10 -3,1 -7,2 -9,2l-1 2c5,0 11,-2 14,-5 -1,4 -2,7 -7,10 -2,1 -8,1 -9,2l-1 2c2,-1 4,-1 6,-1 2,0 5,-1 7,-2 -1,2 -2,5 -5,6 -3,2 -8,3 -11,3l-1 2c4,0 9,-1 11,-2 -1,2 -4,7 -7,7 -2,1 -6,0 -10,-1zm-76 0c3,-1 7,-3 18,-3 -5,-1 -9,-3 -11,-7 -3,-4 -3,-10 -3,-12 0,-4 2,-7 4,-11 2,-4 3,-9 1,-14 -1,-1 -3,-2 -6,-1 -4,1 -10,5 -13,6 -3,1 -11,1 -14,-1 -2,-2 -3,-7 -2,-10 1,-3 3,-5 3,-10 -1,3 -4,7 -6,10 -2,2 -2,9 -1,13 1,2 3,4 5,5 4,3 7,2 10,3l1 2c-1,0 -5,0 -8,-2 -3,-1 -6,-2 -6,-3 0,4 2,8 5,10 3,1 7,2 9,2l1 2c-5,0 -11,-2 -14,-5 1,4 2,7 7,10 2,1 8,1 9,2l1 2c-2,-1 -4,-1 -6,-1 -2,0 -5,-1 -7,-2 1,2 2,5 5,6 3,2 8,3 11,3l1 2c-4,0 -9,-1 -11,-2 1,2 4,7 7,7 2,1 6,0 10,-1zm41 6c1,-1 1,-2 2,-3 0,-2 0,-3 0,-5 -1,-3 -3,-7 -5,-8 -2,1 -4,4 -5,8 0,2 0,3 0,5 1,2 2,3 3,4 0,0 0,0 0,0 0,1 1,2 2,2 1,-1 2,-2 3,-3zm-3 9c9,-5 16,-6 23,-3 6,2 11,6 17,8l-1 -6c-6,-1 -11,-6 -17,-8 -5,-2 -11,-2 -18,1 -1,1 -3,3 -4,4 -2,-1 -3,-3 -4,-5 -7,-2 -13,-2 -18,0 -6,2 -11,7 -17,8l-1 6c6,-2 11,-6 17,-8 7,-3 14,-2 23,3zm0 -28c3,0 4,1 6,3 4,-2 7,-8 6,-12 -1,-4 -4,-10 -7,-14 -2,-4 -4,-9 -5,-11 -1,2 -3,7 -5,11 -3,4 -6,10 -7,14 -1,4 2,10 6,12 2,-2 3,-3 6,-3z"/>
  <path class="fil2" d="M178 98c0,1 -2,5 -4,8 2,2 4,4 5,6 1,3 0,6 -1,10l-2 0c2,-5 2,-7 1,-10 0,-1 -2,-3 -4,-4 -1,2 -2,4 -3,5 -2,3 -4,8 -3,11 1,3 3,4 4,6 2,-2 4,-3 7,-3 3,0 5,1 7,3 1,-2 3,-3 4,-6 1,-3 -1,-8 -3,-11 -2,-3 -8,-13 -8,-15z"/>
  <path class="fil3" d="M120 53l1 0 -1 3 8 3 -2 3 -8 -4 -1 3 0 -1 3 -7zm5 -8l5 4c2,1 2,2 1,5 -1,2 -3,2 -5,1l-5 -4 1 -2 6 4c1,0 1,0 1,0 1,0 1,0 2,-1 0,-1 0,-2 -1,-3l-6 -3 1 -1zm6 -7l1 0 -2 2 7 6 -2 2 -7 -6 -1 2 -1 0 5 -6zm15 -11l3 9 -2 1 -4 -4 2 6 -2 1 -7 -7 2 -2 5 4 -2 -5 1 -1 5 4 -2 -6 1 0zm8 -4l3 6c1,2 0,3 -2,4 -2,1 -4,1 -5,-1l-2 -6 2 -1 3 5c0,1 1,2 1,2 0,0 1,0 1,0 2,-1 2,-2 1,-3l-3 -6 1 0zm6 8l-2 -10 4 -1c1,0 2,0 2,1 1,0 1,0 2,1 0,1 -1,2 -2,3 1,0 1,0 2,0 0,1 0,1 1,2 0,1 0,2 1,2l-3 1c-1,-1 -1,-1 -1,-2l0 0 0 -1c-1,-1 -1,-2 -2,-1l-1 0 1 4 -2 1zm1 -6l1 0c1,0 1,-1 1,-2 0,-1 -1,-2 -2,-1l0 0 0 3zm9 -6l1 10 -2 0 -2 -10 3 0zm11 4l-1 5 -2 0 0 -10 3 1 0 4 2 0 0 -4 3 0 -1 10 -2 -1 0 -4 -2 -1zm12 -2l1 10 -3 -1 0 -2 -3 -1 -1 2 -1 0 5 -9 2 1zm-4 5l2 1 0 -5 -2 4zm16 -2l-4 9 -2 0 -1 -7 -2 5 -1 0 3 -9 2 0 2 8 2 -6 1 0zm-2 10l5 -8 3 2c3,2 3,4 1,6 -1,3 -3,4 -6,2l-3 -2zm3 1l0 0c1,1 1,1 2,0 0,0 1,-1 2,-2 1,-1 1,-2 1,-3 0,-1 0,-1 -1,-1l0 -1 -4 7zm14 0l-4 9 -2 -2 1 -2 -2 -2 -2 1 -1 0 8 -6 2 2zm-6 3l1 1 2 -4 -3 3zm14 5l-6 3 -2 2 -2 -2 2 -3 3 -6 2 3 -2 4 5 -2 0 1zm4 5l-7 8 -1 -2 1 -2 -1 -2 -2 0 -1 -1 10 -3 1 2zm-7 1l1 2 3 -3 -4 1zm13 10l-9 4 -1 -2 4 -6 -6 3 0 -1 8 -4 1 1 -4 7 6 -3 1 1zm1 5l-9 3 -1 -2 10 -4 0 3zm-61 94c-9,-4 -16,-5 -23,-2 -5,2 -11,5 -17,7l-1 3c7,-2 11,-5 17,-7 7,-3 15,-2 24,2 9,-4 17,-5 24,-2 6,2 10,5 17,7l-1 -3c-6,-2 -12,-5 -17,-7 -7,-3 -14,-2 -23,2zm0 -1c9,-5 16,-6 23,-3 6,2 11,6 17,8l-1 -6c-6,-1 -11,-6 -17,-8 -5,-2 -11,-2 -18,1 -1,1 -3,3 -4,4 -2,-1 -3,-3 -4,-5 -7,-2 -13,-2 -18,0 -6,2 -11,7 -17,8l-1 6c6,-2 11,-6 17,-8 7,-3 14,-2 23,3zm3 -9c1,-1 1,-2 2,-3 0,-2 0,-3 0,-5 -1,-3 -3,-7 -5,-8 -2,1 -4,4 -5,8 0,2 0,3 0,5 1,2 2,3 3,4 0,0 0,0 0,0 0,1 1,2 2,2 1,-1 2,-2 3,-3zm-3 -50c0,1 -2,5 -4,8 2,2 4,4 5,6 1,3 0,6 -1,10l-2 0c2,-5 2,-7 1,-10 0,-1 -2,-3 -4,-4 -1,2 -2,4 -3,5 -2,3 -4,8 -3,11 1,3 3,4 4,6 2,-2 4,-3 7,-3 3,0 5,1 7,3 1,-2 3,-3 4,-6 1,-3 -1,-8 -3,-11 -2,-3 -8,-13 -8,-15zm0 -27c-1,2 -6,6 -7,7 -1,1 -1,3 0,6 4,0 6,3 7,6 1,-3 3,-6 7,-6 1,-3 1,-5 0,-6 -1,-1 -6,-5 -7,-7zm6 22c0,5 2,13 10,17 -1,-5 -5,-14 -10,-17zm-12 0c-5,3 -9,12 -10,17 8,-4 10,-12 10,-17zm6 -54c0,1 -2,2 -4,3 -2,1 -3,3 -3,7l2 19 -1 1 -3 -27c-1,2 -3,5 -4,6 -2,2 -3,5 -2,7l4 19 -1 2 -6 -24c-1,-3 -2,-4 -5,-4 -2,0 -5,2 -8,4 4,1 5,1 6,4l11 43c2,-3 4,-6 8,-7 -1,-4 -2,-8 -3,-11 -1,-5 9,-9 9,-14 0,5 10,9 9,14 -1,3 -2,7 -3,11 4,1 6,4 8,7l11 -43c1,-3 2,-3 6,-4 -3,-2 -6,-4 -8,-4 -3,0 -4,1 -5,4l-6 24 -1 -2 4 -19c1,-2 0,-5 -2,-7 -1,-1 -3,-4 -4,-6l-3 27 -1 -1 2 -19c0,-4 -1,-6 -3,-7 -2,-1 -4,-2 -4,-3zm38 103c4,1 8,2 10,1 3,0 6,-5 7,-7 -2,1 -7,2 -11,2l1 -2c3,0 8,-1 11,-3 3,-1 4,-4 5,-6 -2,1 -5,2 -7,2 -2,0 -4,0 -6,1l1 -2c1,-1 7,-1 9,-2 5,-3 6,-6 7,-10 -3,3 -9,5 -14,5l1 -2c2,0 6,-1 9,-2 3,-2 5,-6 5,-10 0,1 -3,2 -6,3 -3,2 -7,2 -8,2l1 -2c3,-1 6,0 10,-3 2,-1 4,-3 5,-5 1,-4 1,-11 -1,-13 -2,-3 -5,-7 -6,-10 0,5 2,7 3,10 1,3 0,8 -2,10 -3,2 -11,2 -14,1 -3,-1 -9,-5 -13,-6 -3,-1 -5,0 -6,1 -2,5 -1,10 1,14 2,4 4,7 4,11 0,2 0,8 -3,12 -2,4 -6,6 -11,7 11,0 15,2 18,3zm-38 -13c-3,0 -4,1 -6,3 -4,-2 -7,-8 -6,-12 1,-4 4,-10 7,-14 2,-4 4,-9 5,-11 1,2 3,7 5,11 3,4 6,10 7,14 1,4 -2,10 -6,12 -2,-2 -3,-3 -6,-3zm0 -36c-1,-1 -2,-4 -3,-5 -1,-1 -1,-2 -3,-2 2,5 2,13 -1,19 -2,3 -6,5 -10,6 -1,2 -1,3 -1,5 -4,-1 -6,-5 -5,-9 0,-3 1,-7 1,-9 -1,-2 -2,-4 -6,-3 2,3 2,6 1,9 -2,11 -9,15 -3,26 3,5 10,7 14,8 6,0 8,5 10,6 0,-1 0,-3 0,-5 1,-4 3,-7 6,-9 3,2 5,5 6,9 0,2 0,4 0,5 2,-1 4,-6 10,-6 4,-1 11,-3 14,-8 6,-11 -1,-15 -3,-26 -1,-3 -1,-6 1,-9 -4,-1 -5,1 -6,3 0,2 1,6 1,9 1,4 -1,8 -5,9 0,-2 0,-3 -1,-5 -4,-1 -8,-3 -10,-6 -3,-6 -3,-14 -1,-19 -2,0 -2,1 -3,2 -1,1 -2,4 -3,5zm-38 49c3,-1 7,-3 18,-3 -5,-1 -9,-3 -11,-7 -3,-4 -3,-10 -3,-12 0,-4 2,-7 4,-11 2,-4 3,-9 1,-14 -1,-1 -3,-2 -6,-1 -4,1 -10,5 -13,6 -3,1 -11,1 -14,-1 -2,-2 -3,-7 -2,-10 1,-3 3,-5 3,-10 -1,3 -4,7 -6,10 -2,2 -2,9 -1,13 1,2 3,4 5,5 4,3 7,2 10,3l1 2c-1,0 -5,0 -8,-2 -3,-1 -6,-2 -6,-3 0,4 2,8 5,10 3,1 7,2 9,2l1 2c-5,0 -11,-2 -14,-5 1,4 2,7 7,10 2,1 8,1 9,2l1 2c-2,-1 -4,-1 -6,-1 -2,0 -5,-1 -7,-2 1,2 2,5 5,6 3,2 8,3 11,3l1 2c-4,0 -9,-1 -11,-2 1,2 4,7 7,7 2,1 6,0 10,-1zm20 -32l1 -1 0 0 0 -1 0 -1 0 0 0 -1 1 0 0 -1 0 -1 0 0 1 -1 0 0 0 -1 1 -1 0 0 -12 -44 0 -1 0 0 0 0 0 0 0 -1 0 0 0 0 -1 0 0 0 0 0 0 -1 0 0 0 0 0 0 0 0 0 0 -1 0 0 0 0 0 0 0 0 0 0 0 -1 0 0 0 0 0 0 0 0 0 -1 0 0 0 0 -1 -1 0 -2 0 2 -2 0 0 0 0 1 -1 0 0 0 0 0 0 1 0 0 -1 0 0 0 0 1 0 0 0 0 -1 1 0 0 0 0 0 0 0 1 0 0 -1 0 0 0 0 1 0 0 0 0 0 1 0 0 0 0 0 1 0 0 0 0 0 0 0 1 0 0 0 0 0 0 0 1 0 0 0 0 0 0 0 1 0 0 0 0 1 0 0 0 0 1 0 0 0 0 0 0 0 0 1 0 0 1 0 0 0 0 0 0 0 0 1 0 0 0 0 0 0 1 1 0 0 0 0 0 0 0 1 1 2 0 0 0 0 0 -1 0 0 0 0 0 0 0 -1 0 0 0 0 0 -1 0 0 0 0 0 0 0 -1 0 0 0 0 0 0 1 -1 0 0 0 0 0 0 0 -1 0 0 1 0 0 0 0 0 0 -1 0 0 0 0 1 0 0 0 0 0 0 0 0 -1 0 0 0 0 0 0 0 0 1 0 0 -1 0 0 0 0 0 0 0 -1 0 0 0 0 1 0 0 0 0 -1 0 0 0 0 0 0 0 0 0 -1 0 0 1 0 0 0 0 0 2 -3 0 7 0 0 0 0 0 0 1 -1 0 0 0 0 0 0 0 -1 0 0 0 0 0 0 0 -1 1 0 0 0 0 0 0 0 0 -1 0 0 1 0 0 0 0 0 0 0 0 -1 1 0 0 0 0 0 0 0 1 0 0 -1 0 0 0 0 1 0 0 0 0 0 0 -1 1 0 0 0 0 0 0 0 0 0 1 -2 1 2 0 0 0 0 0 0 0 0 1 0 0 1 0 0 0 0 1 0 0 0 0 0 0 1 1 0 0 0 0 0 0 0 1 0 0 1 0 0 0 0 0 0 1 0 0 0 0 1 0 0 0 0 0 0 1 0 0 1 0 0 0 0 0 0 0 1 0 0 0 0 0 0 1 1 0 0 0 0 0 0 0 -7 2 3 0 0 0 0 1 0 0 0 0 1 0 0 0 0 0 0 0 0 0 1 0 0 1 0 0 0 0 0 0 1 0 0 0 0 0 0 0 1 1 0 0 0 0 0 0 0 0 0 0 1 0 0 0 0 0 0 1 0 0 0 0 0 0 1 0 0 0 0 1 0 0 0 0 1 0 0 0 0 0 0 1 1 0 0 0 0 0 0 0 1 0 0 0 0 0 0 0 1 0 0 0 0 0 1 0 0 0 0 0 0 0 1 0 0 0 0 1 -2 0 -1 0 0 0 0 0 0 1 -1 0 0 0 0 0 0 0 -1 0 0 0 0 0 0 1 0 0 0 0 -1 0 0 0 0 0 0 1 0 0 0 0 0 0 -1 0 0 1 0 0 0 0 0 0 0 1 0 0 0 0 0 0 0 1 0 0 0 0 0 0 0 1 0 0 0 0 0 1 0 0 0 0 0 1 0 0 0 0 0 0 1 1 0 0 0 0 0 0 0 1 0 0 1 0 0 1 0 0 0 0 0 0 1 1 0 0 0 0 0 0 0 1 1 0 0 0 0 2 2 -2 0 -1 0 0 1 0 0 -1 0 0 0 0 0 0 0 0 0 -1 0 0 0 0 0 0 0 0 0 0 0 -1 0 0 0 0 0 0 0 0 0 0 0 0 1 0 0 0 0 -1 0 0 0 0 0 0 1 0 0 0 0 0 0 0 1 -12 44 0 0 1 1 0 1 0 0 1 1 0 0 0 1 0 1 1 0 0 1 0 0 0 1 0 1 0 0 1 1 0 1 0 0 0 1 0 0 0 0 0 1 1 0 0 0 0 0 0 1 0 0 0 0 0 0 0 0 0 0 0 0 1 0 0 -1 0 0 0 0 1 0 0 0 0 -1 0 0 0 0 0 0 1 0 0 -1 0 0 0 0 0 0 0 -1 0 0 0 0 0 -1 0 0 0 0 0 -1 0 0 0 0 0 -1 0 0 0 0 0 0 0 -1 0 0 0 -1 0 0 0 0 0 -1 -1 0 0 0 0 -1 0 0 0 0 0 -1 0 0 0 0 0 0 0 -1 0 0 0 0 0 -1 0 0 0 0 0 -1 0 0 0 0 0 0 0 -1 0 0 0 0 0 0 1 -1 0 0 0 0 0 0 0 -1 0 0 0 0 0 0 0 0 0 -1 1 0 0 0 0 0 0 0 0 0 1 -1 0 0 0 0 0 0 0 0 1 0 0 0 0 0 1 0 0 0 0 0 1 0 0 0 0 0 1 0 1 0 0 0 0 0 0 0 0 -1 1 0 0 0 0 0 0 0 0 0 1 0 0 0 0 0 0 0 1 0 0 0 0 0 0 0 1 0 0 0 0 0 0 0 1 0 0 0 0 0 1 0 0 0 0 0 1 0 0 0 0 0 1 0 0 1 0 0 1 0 0 0 1 0 0 1 1 0 0 0 0 0 1 0 0 1 1 0 0 0 1 0 0 1 0 0 1 0 0 0 1 1 0 0 0 0 1 0 0 0 1 1 0 0 0 0 1 0 0 0 0 0 0 0 1 0 0 0 0 0 1 1 0 0 0 0 1 0 0 0 1 0 0 0 1 0 0 0 1 0 0 0 1 0 0 0 1 0 0 0 1 0 0 -1 1 0 0 0 0 0 1 0 0 0 1 0 0 0 0 -1 1 0 0 0 0 0 0 0 0 0 1 -1 0 0 0 0 0 0 0 0 0 -1 0 0 0 0 1 0 0 -1 0 0 0 0 0 0 0 -1 0 0 0 0 0 -1 0 0 0 0 0 -1 0 0 0 0 0 0 0 -1 0 0 0 0 0 0 0 -1 0 0 0 0 0 0 0 -1 0 0 0 0 -1 -1 0 0 0 0 0 0 0 -1 0 0 0 0 0 -1 -1 0 0 0 0 0 0 -1 0 0 0 0 0 -1 -1 0 0 0 0 -1 0 0 0 0 0 -1 0 0 0 0 0 -1 0 0 0 -1 0 0 -1 -7 3 6 0 0 0 1 0 0 0 0 0 0 1 1 0 0 0 0 0 1 0 0 1 0 0 0 0 1 0 0 0 0 1 1 0 0 0 1 1 0 0 0 0 1 0 0 0 0 1 0 0 1 0 0 0 0 0 1 1 0 0 0 0 0 0 0 0 1 0 0 1 1 0 0 0 0 0 1 0 0 0 1 0 0 1 1 0 0 0 1 0 0 0 1 0 0 0 1 0 0 0 1 0 0 0 1 0 0 0 1 0 0 0 1 0 0 0 1 0 0 -1 0 0 1 0 0 0 0 0 1 0 0 0 0 0 0 0 0 -1 1 0 0 0 0 0 0 0 0 0 1 0 0 -1 0 0 0 0 0 0 1 0 0 0 0 0 1 0 0 0 1 0 0 0 1 0 0 0 0 0 1 0 0 0 0 0 1 0 0 -1 0 0 1 0 0 0 1 0 0 0 0 -1 1 0 0 0 0 1 1 0 1 0 1 0 0 -1 0 0 1 0 0 0 1 0 0 0 1 0 0 0 0 0 1 -1 0 0 0 0 1 0 0 0 0 0 1 -1 0 0 0 0 1 -1 0 0 0 0 1 0 0 -1 0 1 2 0 0 0 0 -1 1 0 0 0 0 0 0 0 1 0 0 0 0 0 0 0 1 0 0 0 0 -1 0 0 1 0 0 0 0 0 0 0 1 0 0 -1 0 0 0 0 1 0 0 0 0 -1 0 0 0 0 1 0 0 -1 0 0 0 0 0 -1 1 0 0 0 0 0 1 0 0 0 0 0 1 0 0 -1 0 0 1 0 0 0 0 0 1 -1 0 0 0 0 1 0 0 0 0 -1 1 0 0 0 0 0 1 -1 0 0 0 0 0 -1 1 0 0 0 0 -1 0 0 1 0 0 -1 0 0 0 0 0 -1 0 0 0 0 0 -1 0 0 0 0 0 0 0 -1 1 0 0 0 -1 0 0 -1 0 0 0 0 0 -1 0 0 0 0 0 -1 0 0 0 0 0 -1 0 0 0 0 0 -1 0 0 0 0 0 -1 0 0 0 0 0 -1 -1 0 0 -1 0 0 0 0 0 -1 0 0 0 0 0 -1 0 0 0 0 -1 -1 0 0 0 0 0 -1 0 0 0 -1 0 0 0 0 -1 -1 0 0 0 -1 0 0 0 -1 0 -1 0 0 0 -1 0 -1 0 0 0 -1 -1 -1 0 -1 0 0 0 -1 0 -1 0 -1 0 -8 0 0 0 -1 0 0 0 0 0 0 1 -1 0 0 0 0 0 -1 0 0 1 0 0 0 0 -1 0 0 1 0 0 0 0 0 0 -1 1 0 0 0 0 0 0 0 0 0 1 -1 0 -2 2 1 0 1 -1 0 0 1 0 1 0 0 0 1 0 1 0 0 0 1 -1 1 0 0 0 1 0 1 0 0 0 1 0 0 0 1 1 1 0 0 0 1 0 0 0 1 0 1 0 0 0 1 1 0 0 1 0 1 0 0 1 1 0 0 0 1 0 0 1 1 0 0 0 1 1 0 0 1 0 0 1 1 0 0 0 1 0 0 1 1 0 0 0 1 1 0 0 1 0 0 0 1 0 1 1 0 0 1 0 0 0 1 0 0 1 1 0 1 0 1 7 1 5 -2 0 -1 0 0 -1 -1 0 -1 0 0 0 -1 0 0 -1 -1 0 0 0 -1 0 0 -1 -1 0 0 0 -1 0 0 -1 -1 0 0 0 -1 0 0 -1 -1 0 0 0 -1 0 0 -1 -1 0 0 0 -1 0 0 -1 -1 0 0 0 -1 0 0 0 -1 -1 -1 0 0 0 -1 0 0 0 -1 0 -1 -1 0 0 -1 0 -1 0 -1 0 0 0 -1 0 -1 0 0 0 -1 0 -1 0 0 0 -1 1 -1 0 -1 0 0 0 -1 0 -1 1 -1 0 -1 0 0 0 -1 1 -1 0 -1 0 -1 1 -1 0 -1 0 -1 -1 -1 0 -1 0 -1 -1 0 0 -1 0 -1 0 -1 -1 -1 0 0 0 -1 0 -1 0 -1 -1 0 0 -1 0 -1 0 0 0 -1 0 -1 0 0 0 -1 0 -1 0 -1 0 0 0 -1 1 -1 0 0 0 -1 0 0 0 -1 0 -1 1 0 0 -1 0 0 0 -1 0 0 1 -1 0 0 0 -1 0 0 1 -1 0 0 0 -1 0 0 1 -1 0 0 0 -1 0 0 1 -1 0 0 0 -1 0 0 1 -1 0 0 0 -1 0 0 1 -1 0 0 0 -1 0 -1 0 0 1 -1 0 -2 0 1 -5 1 -7 1 0 1 0 0 -1 1 0 0 0 1 0 0 0 1 -1 1 0 0 0 1 0 0 0 1 -1 0 0 1 0 0 -1 1 0 0 0 1 0 0 -1 1 0 0 0 1 -1 0 0 1 0 0 -1 1 0 0 0 1 0 0 -1 1 0 1 0 0 0 1 -1 0 0 1 0 1 0 0 0 1 0 0 0 1 0 1 -1 0 0 1 0 0 0 1 0 1 0 0 0 1 0 1 1 0 0 1 0 1 0 0 0 1 0 1 0 0 0 1 1 1 0 -2 -2 -1 0 0 -1 0 0 0 0 0 0 0 0 -1 -1 0 0 0 0 0 0 0 -1 -1 0 0 0 0 0 0 -1 -1 0 0 0 0 0 -1 0 0 -1 0 0 0 0 -1 0 0 0 -8 0 -1 0 -1 0 -1 0 0 0 -1 0 -1 0 -1 1 0 0 -1 0 -1 0 0 0 -1 0 -1 0 0 0 -1 0 0 0 -1 0 0 1 0 0 -1 0 0 0 -1 0 0 0 0 0 -1 0 0 1 0 0 -1 0 0 0 0 0 -1 0 0 0 0 0 -1 0 0 0 -1 1 0 0 0 0 -1 0 0 0 0 0 -1 0 0 0 0 0 -1 0 0 0 0 0 -1 0 0 0 0 0 -1 0 0 0 0 0 -1 0 0 0 0 1 0 0 -1 -1 0 0 0 0 0 0 -1 0 0 0 0 0 -1 0 0 0 0 0 -1 0 0 0 0 -1 -1 0 0 0 0 0 -1 -1 0 0 0 0 -1 0 0 -1 0 0 0 0 -1 -1 0 0 0 0 0 -1 0 0 -1 0 0 -1 0 0 0 0 0 -1 -1 0 0 0 0 -1 0 0 0 0 0 -1 0 0 -1 -1 0 0 0 0 -1 0 0 0 0 -1 0 0 -1 0 0 0 0 0 0 -1 0 0 -1 0 0 0 0 -1 0 0 0 0 0 0 0 -1 -1 0 0 0 0 0 0 -1 0 0 0 0 0 0 0 -1 0 0 0 0 0 0 -1 -1 0 0 0 0 1 -2 -1 0 0 0 0 -1 0 0 -1 0 0 -1 0 0 -1 0 0 -1 0 0 0 0 0 -1 0 0 -1 0 0 -1 0 0 0 0 0 -1 0 0 0 -1 0 0 0 -1 -1 0 0 0 0 -1 0 -1 1 -1 0 0 0 0 -1 -1 0 0 0 0 0 -1 0 0 0 -1 -1 0 0 0 0 -1 0 0 0 0 0 -1 0 0 0 0 0 -1 0 0 0 -1 0 0 0 -1 0 0 0 0 0 -1 0 0 0 0 -1 0 0 0 0 -1 0 0 0 0 0 0 0 0 -1 -1 0 0 0 0 0 0 0 0 0 -1 0 0 0 0 0 -1 -1 0 0 0 0 -1 0 0 0 -1 0 0 0 -1 0 0 0 -1 0 0 0 -1 0 0 0 -1 0 0 0 -1 0 0 0 -1 0 0 1 -1 0 0 0 -1 0 0 0 -1 0 0 0 0 1 -1 0 0 0 -1 0 0 0 0 0 0 1 0 0 -1 0 0 0 0 0 -1 1 0 0 0 0 0 0 -1 0 0 1 0 0 -1 0 0 1 -1 0 0 0 0 0 -1 0 0 1 0 0 0 0 -1 0 0 0 0 1 -1 0 0 0 0 0 0 0 -1 0 0 3 -6 -1 7 0 0 0 1 0 0 0 1 0 0 0 0 0 1 0 0 0 0 0 1 0 0 -1 0 0 1 0 0 0 0 0 1 0 0 0 0 -1 0 0 1 0 0 0 0 0 1 0 0 0 0 0 0 -1 1 0 0 0 0 0 1 0 0 0 0 0 0 0 1 0 0 0 0 0 0 0 1 0 0 0 0 0 0 0 1 0 0 0 0 0 1 0 0 0 0 0 1 0 0 0 0 0 0 0 1 1 0 0 0 0 0 0 1 0 0 0 0 0 0 0 0 1 1 0 0 0 0 0 0 0 0 1 0 0 1 0 0 1 0 0 0 1 0 0 0 0 0 1 0 0 1 1 0 0 0 1 0 0 0 1 0 0 0 1 0 0 0 1 0 0 0 1 0 0 0 1 0 0 0 0 0 1 -1 0 0 0 0 1 0 0 0 0 0 0 0 1 0 0 0 0 0 1 -1 0 0 1 0 0 0 0 0 1 -1 0 0 1 0 0 0 0 -1 1 0 0 0 1 0 0 -1 1 0 0 0 0 0 1 0 0 -1 1 0 0 0 1 0 0 0 0 -1 1 0 0 0 0 0 1 0 0 0 0 0 1 0 0 0 0 0 1 0 0 0 0 0 0 0 1 0 0 0 0 0 0 0 1 0 0 0 0 0 0 0 1 0 0 0 0 0 0 0 0 0 1 0 0 1 0 0 0 0 0 0 1 0 1 0 0 0 0 0 1 0 0 0 0 0 1 0 0 0 0 0 1 0 0 0 0 0 0 0 0 0 1 1 0 0 0 0 0 0 0 0 1 0 0 1 0 0 0 0 0 0 0 0 0 1 0 0 0 0 0 0 1 1 0 0 0 0 0 0 0 1 0 0 0 0 0 0 0 1 0 0 0 0 0 1 0 0 0 0 0 1 0 0 0 0 0 0 0 1 0 0 0 0 0 1 0 0 -1 0 0 1 0 0 0 0 0 1 0 0 0 1 0 0 0 0 0 0 0 1 0 0 0 0 0 1 0 0 0 0 0 1 0 0 0 0 0 1 0 0 0 0 0 0 0 1 1 0 0 0 0 0 0 0 0 1 0 0 1 0 0 0 0 0 0 1 1 0 0 0 0 0 0 0 0 0 0 0 0 0 0 -1 0 0 0 0 1 0 0 -1 0 0 0 0 0 -1 0 0 0 -1z"/>
  <path class="fil4" d="M102 194l4 0 0 6 4 -6 4 0 -6 8 7 9 -4 0 -5 -7 0 7 -4 0 0 -17zm15 0l9 0 0 3 -6 0 0 3 6 0 0 4 -6 0 0 4 6 0 0 3 -9 0 0 -17zm14 0l3 0 4 12 4 -12 3 0 3 17 -3 0 -2 -11 -4 11 -2 0 -4 -11 -2 11 -3 0 3 -17zm19 0l10 0 0 3 -6 0 0 3 6 0 0 4 -6 0 0 4 6 0 0 3 -10 0 0 -17zm13 0l3 0 7 11 0 -11 3 0 0 17 -3 0 -7 -11 0 11 -3 0 0 -17zm16 0l9 0 0 3 -3 0 0 14 -3 0 0 -14 -3 0 0 -3zm11 0l9 0 0 3 -6 0 0 3 6 0 0 4 -6 0 0 4 6 0 0 3 -9 0 0 -17zm13 0l3 0c2,0 3,0 4,1 1,0 1,1 2,1 0,1 1,2 1,3 0,1 -1,2 -1,3 -1,1 -1,1 -3,2l4 7 -3 0 -4 -7 0 0 0 7 -3 0 0 -17zm3 7l1 0c1,0 2,0 2,-1 0,0 1,0 1,-1 0,0 -1,-1 -1,-1 0,0 0,0 -1,0 0,-1 0,-1 -1,-1l-1 0 0 4zm10 -7l3 0 0 17 -3 0 0 -17zm12 0l3 0 7 17 -4 0 -1 -3 -7 0 -1 3 -4 0 7 -17zm1 5l-2 6 5 0 -3 -6zm11 -5l3 0 7 11 0 -11 4 0 0 17 -3 0 -8 -11 0 11 -3 0 0 -17zm-240 29l3 0c2,0 4,0 4,0 1,1 2,1 2,2 1,1 1,2 1,3 0,1 0,2 -1,3 0,0 -1,1 -2,1 -1,0 -2,1 -4,1l0 7 -3 0 0 -17zm3 6l1 0c1,0 2,0 2,0 0,0 1,0 1,0 0,-1 0,-1 0,-1 0,-1 0,-1 -1,-2 0,0 -1,0 -2,0l-1 0 0 3zm10 -6l10 0 0 3 -7 0 0 3 7 0 0 3 -7 0 0 5 7 0 0 3 -10 0 0 -17zm13 0l3 0 7 11 0 -11 3 0 0 17 -3 0 -7 -11 0 11 -3 0 0 -17zm17 0l4 0c2,0 4,0 5,1 1,0 2,1 3,3 1,1 1,3 1,4 0,2 0,3 0,4 -1,1 -1,2 -2,3 -1,1 -2,1 -3,1 0,1 -2,1 -4,1l-4 0 0 -17zm3 3l0 11 2 0c1,0 2,-1 3,-1 1,0 1,-1 1,-2 1,0 1,-1 1,-3 0,-1 0,-3 -1,-4 -1,-1 -3,-1 -5,-1l-1 0zm13 -3l3 0 0 17 -3 0 0 -17zm7 0l4 0c2,0 4,0 5,1 2,0 3,1 3,3 1,1 1,3 1,4 0,2 0,3 0,4 -1,1 -1,2 -2,3 -1,1 -2,1 -2,1 -1,1 -3,1 -5,1l-4 0 0 -17zm3 3l0 11 2 0c1,0 2,-1 3,-1 1,0 1,-1 2,-2 0,0 0,-1 0,-3 0,-1 0,-3 -1,-4 -1,-1 -3,-1 -5,-1l-1 0zm13 -3l4 0 0 17 -4 0 0 -17zm7 0l3 0 0 6 5 -6 4 0 -6 7 6 10 -3 0 -6 -8 0 8 -3 0 0 -17zm20 0l3 0 7 17 -4 0 -1 -4 -7 0 -1 4 -4 0 7 -17zm2 4l-3 6 5 0 -2 -6zm10 -4l3 0 8 11 0 -11 3 0 0 17 -3 0 -8 -11 0 11 -3 0 0 -17zm24 0l4 0c3,0 4,0 6,1 1,0 2,1 3,3 0,1 1,3 1,4 0,2 0,3 -1,4 0,1 -1,2 -2,3 0,1 -1,1 -2,1 -1,1 -3,1 -5,1l-4 0 0 -17zm4 3l0 11 1 0c1,0 3,-1 3,-1 1,0 1,-1 2,-2 0,0 0,-1 0,-3 0,-1 0,-3 -1,-4 -1,-1 -2,-1 -4,-1l-1 0zm18 -3l3 0 7 17 -4 0 -1 -4 -7 0 -1 4 -4 0 7 -17zm2 4l-3 6 5 0 -2 -6zm10 -4l3 0 8 11 0 -11 3 0 0 17 -3 0 -8 -11 0 11 -3 0 0 -17zm24 0l4 0 0 6 4 -6 4 0 -6 7 7 10 -4 0 -5 -8 0 8 -4 0 0 -17zm15 0l9 0 0 3 -6 0 0 3 6 0 0 3 -6 0 0 5 6 0 0 3 -9 0 0 -17zm12 17l0 -17 3 0c1,0 3,0 3,0 1,0 2,1 3,2 0,0 1,1 1,2 0,1 -1,1 -1,2 0,0 -1,1 -1,1 1,1 2,1 2,2 1,1 1,2 1,3 0,1 0,2 -1,2 0,1 -1,2 -2,2 -1,1 -2,1 -3,1l-5 0zm3 -14l0 3 1 0c1,0 1,0 2,0 0,0 0,-1 0,-1 0,-1 0,-1 0,-2 0,0 -1,0 -2,0l-1 0zm0 6l0 5 1 0c2,0 2,-1 3,-1 0,0 1,-1 1,-1 0,-1 -1,-2 -1,-2 -1,0 -2,-1 -3,-1l-1 0zm11 -9l3 0 0 11c0,1 0,1 0,2 0,0 1,0 1,1 0,0 1,0 1,0 1,0 1,0 2,0 0,-1 1,-1 1,-1 0,-1 0,-2 0,-3l0 -10 3 0 0 10c0,2 0,3 0,3 0,1 -1,2 -1,2 -1,1 -1,1 -2,2 -1,0 -2,0 -3,0 -1,0 -2,0 -3,-1 -1,0 -1,-1 -2,-2 0,-1 0,-2 0,-4l0 -10zm15 0l4 0c2,0 4,0 5,1 1,0 2,1 3,3 1,1 1,3 1,4 0,2 0,3 0,4 -1,1 -1,2 -2,3 -1,1 -2,1 -3,1 0,1 -2,1 -4,1l-4 0 0 -17zm3 3l0 11 2 0c1,0 2,-1 3,-1 1,0 1,-1 1,-2 1,0 1,-1 1,-3 0,-1 0,-3 -1,-4 -1,-1 -3,-1 -5,-1l-1 0zm19 -3l3 0 6 17 -3 0 -1 -4 -7 0 -2 4 -3 0 7 -17zm1 4l-2 6 5 0 -3 -6zm10 -4l3 0 3 6 3 -6 4 0 -5 9 0 8 -3 0 0 -8 -5 -9zm21 0l3 0 6 17 -3 0 -1 -4 -7 0 -1 4 -4 0 7 -17zm1 4l-2 6 5 0 -3 -6zm16 -4l3 0 7 17 -3 0 -2 -4 -7 0 -1 4 -3 0 6 -17zm2 4l-3 6 5 0 -2 -6zm10 -4l3 0 8 11 0 -11 3 0 0 17 -3 0 -7 -11 0 11 -4 0 0 -17z"/>
 </g>
</svg>
